{
  "accessors": [
    {
      "bufferView": 2,
      "componentType": 5126,
      "count": 65532,
      "max": [
        -1196.94482421875,
        252.0343017578125,
        -208.57760620117188
      ],
      "min": [
        -1301.65478515625,
        187.52940368652344,
        -236.35279846191406
      ],
      "type": "VEC3"
    },
    {
      "bufferView": 2,
      "byteOffset": 786384,
      "componentType": 5126,
      "count": 65532,
      "max": [
        0.99999499320983887,
        1,
        1
      ],
      "min": [
        -0.99999523162841797,
        -1,
        -1
      ],
      "type": "VEC3"
    },
    {
      "bufferView": 1,
      "componentType": 5126,
      "count": 65532,
      "max": [
        0,
        0
      ],
      "min": [
        0,
        0
      ],
      "type": "VEC2"
    },
    {
      "bufferView": 0,
      "componentType": 5125,
      "count": 362928,
      "max": [
        65531
      ],
      "min": [
        0
      ],
      "type": "SCALAR"
    },
    {
      "bufferView": 2,
      "byteOffset": 1572768,
      "componentType": 5126,
      "count": 12504,
      "max": [
        -1234.75830078125,
        252.10240173339844,
        -208.57760620117188
      ],
      "min": [
        -1301.603515625,
        196.68490600585938,
        -211.73660278320312
      ],
      "type": "VEC3"
    },
    {
      "bufferView": 2,
      "byteOffset": 1722816,
      "componentType": 5126,
      "count": 12504,
      "max": [
        0.9994845986366272,
        0.99969428777694702,
        1
      ],
      "min": [
        -0.99947792291641235,
        -0.9996911883354187,
        -1
      ],
      "type": "VEC3"
    },
    {
      "bufferView": 1,
      "byteOffset": 524256,
      "componentType": 5126,
      "count": 12504,
      "max": [
        0,
        0
      ],
      "min": [
        0,
        0
      ],
      "type": "VEC2"
    },
    {
      "bufferView": 0,
      "byteOffset": 1451712,
      "componentType": 5125,
      "count": 69204,
      "max": [
        12503
      ],
      "min": [
        0
      ],
      "type": "SCALAR"
    },
    {
      "bufferView": 2,
      "byteOffset": 1872864,
      "componentType": 5126,
      "count": 432,
      "max": [
        -1071.10986328125,
        308.36810302734375,
        -236.1697998046875
      ],
      "min": [
        -1150.46337890625,
        133.71440124511719,
        -249.08740234375
      ],
      "type": "VEC3"
    },
    {
      "bufferView": 2,
      "byteOffset": 1878048,
      "componentType": 5126,
      "count": 432,
      "max": [
        0.98708492517471313,
        0.98708492517471313,
        0.97539275884628296
      ],
      "min": [
        -0.98708492517471313,
        -0.98708492517471313,
        -0.97539275884628296
      ],
      "type": "VEC3"
    },
    {
      "bufferView": 1,
      "byteOffset": 624288,
      "componentType": 5126,
      "count": 432,
      "max": [
        1,
        1
      ],
      "min": [
        0,
        0
      ],
      "type": "VEC2"
    },
    {
      "bufferView": 0,
      "byteOffset": 1728528,
      "componentType": 5125,
      "count": 1584,
      "max": [
        431
      ],
      "min": [
        0
      ],
      "type": "SCALAR"
    },
    {
      "bufferView": 2,
      "byteOffset": 1883232,
      "componentType": 5126,
      "count": 3092,
      "max": [
        -1048.6783447265625,
        312.15341186523438,
        -190.21839904785156
      ],
      "min": [
        -1310.2359619140625,
        190.04280090332031,
        -235.41459655761719
      ],
      "type": "VEC3"
    },
    {
      "bufferView": 2,
      "byteOffset": 1920336,
      "componentType": 5126,
      "count": 3092,
      "max": [
        0.99999833106994629,
        0.99869585037231445,
        0.98999541997909546
      ],
      "min": [
        -0.99999833106994629,
        -0.99739867448806763,
        -0.99962359666824341
      ],
      "type": "VEC3"
    },
    {
      "bufferView": 1,
      "byteOffset": 627744,
      "componentType": 5126,
      "count": 3092,
      "max": [
        1.000499963760376,
        1.0003999471664429
      ],
      "min": [
        -0.00050000002374872565,
        -0.00039999998989515007
      ],
      "type": "VEC2"
    },
    {
      "bufferView": 0,
      "byteOffset": 1734864,
      "componentType": 5125,
      "count": 12216,
      "max": [
        3091
      ],
      "min": [
        0
      ],
      "type": "SCALAR"
    },
    {
      "bufferView": 2,
      "byteOffset": 1957440,
      "componentType": 5126,
      "count": 30746,
      "max": [
        -1196.3797607421875,
        252.31269836425781,
        -207.81129455566406
      ],
      "min": [
        -1302.07275390625,
        186.764892578125,
        -236.29530334472656
      ],
      "type": "VEC3"
    },
    {
      "bufferView": 2,
      "byteOffset": 2326392,
      "componentType": 5126,
      "count": 30746,
      "max": [
        1,
        0.9999847412109375,
        1
      ],
      "min": [
        -1,
        -1,
        -1
      ],
      "type": "VEC3"
    },
    {
      "bufferView": 1,
      "byteOffset": 652480,
      "componentType": 5126,
      "count": 30746,
      "max": [
        0.70310002565383911,
        0.71630001068115234
      ],
      "min": [
        0.2937999963760376,
        0.35940000414848328
      ],
      "type": "VEC2"
    },
    {
      "bufferView": 0,
      "byteOffset": 1783728,
      "componentType": 5125,
      "count": 172107,
      "max": [
        30745
      ],
      "min": [
        0
      ],
      "type": "SCALAR"
    },
    {
      "bufferView": 2,
      "byteOffset": 2695344,
      "componentType": 5126,
      "count": 3420,
      "max": [
        -1055.8236083984375,
        317.34249877929688,
        -220.53179931640625
      ],
      "min": [
        -1301.907958984375,
        126.40190124511719,
        -248.84599304199219
      ],
      "type": "VEC3"
    },
    {
      "bufferView": 2,
      "byteOffset": 2736384,
      "componentType": 5126,
      "count": 3420,
      "max": [
        0.99999988079071045,
        0.9999992847442627,
        1
      ],
      "min": [
        -0.99999988079071045,
        -0.99999916553497314,
        -1
      ],
      "type": "VEC3"
    },
    {
      "bufferView": 1,
      "byteOffset": 898448,
      "componentType": 5126,
      "count": 3420,
      "max": [
        0.99400001764297485,
        1
      ],
      "min": [
        -0.027799999341368675,
        0
      ],
      "type": "VEC2"
    },
    {
      "bufferView": 0,
      "byteOffset": 2472156,
      "componentType": 5125,
      "count": 16212,
      "max": [
        3419
      ],
      "min": [
        0
      ],
      "type": "SCALAR"
    },
    {
      "bufferView": 2,
      "byteOffset": 2777424,
      "componentType": 5126,
      "count": 22353,
      "max": [
        -1196.0516357421875,
        272.4296875,
        -168.89860534667969
      ],
      "min": [
        -1302.7283935546875,
        187.80940246582031,
        -236.29879760742188
      ],
      "type": "VEC3"
    },
    {
      "bufferView": 2,
      "byteOffset": 3045660,
      "componentType": 5126,
      "count": 22353,
      "max": [
        1,
        1,
        1
      ],
      "min": [
        -1,
        -1,
        -1
      ],
      "type": "VEC3"
    },
    {
      "bufferView": 1,
      "byteOffset": 925808,
      "componentType": 5126,
      "count": 22353,
      "max": [
        0.98000001907348633,
        0.88520002365112305
      ],
      "min": [
        0.00050000002374872565,
        0.00050000002374872565
      ],
      "type": "VEC2"
    },
    {
      "bufferView": 0,
      "byteOffset": 2537004,
      "componentType": 5125,
      "count": 126312,
      "max": [
        22352
      ],
      "min": [
        0
      ],
      "type": "SCALAR"
    },
    {
      "bufferView": 2,
      "byteOffset": 3313896,
      "componentType": 5126,
      "count": 8230,
      "max": [
        -1056.7994384765625,
        316.39190673828125,
        -175.66099548339844
      ],
      "min": [
        -1301.813720703125,
        127.35260009765625,
        -235.77290344238281
      ],
      "type": "VEC3"
    },
    {
      "bufferView": 2,
      "byteOffset": 3412656,
      "componentType": 5126,
      "count": 8230,
      "max": [
        0.99995410442352295,
        0.99998342990875244,
        0.99999940395355225
      ],
      "min": [
        -0.99995410442352295,
        -0.99999833106994629,
        -0.99998879432678223
      ],
      "type": "VEC3"
    },
    {
      "bufferView": 1,
      "byteOffset": 1104632,
      "componentType": 5126,
      "count": 8230,
      "max": [
        1.0025999546051025,
        1.0017000436782837
      ],
      "min": [
        -0.0024999999441206455,
        -0.0017000000225380063
      ],
      "type": "VEC2"
    },
    {
      "bufferView": 0,
      "byteOffset": 3042252,
      "componentType": 5125,
      "count": 34536,
      "max": [
        8229
      ],
      "min": [
        0
      ],
      "type": "SCALAR"
    },
    {
      "bufferView": 2,
      "byteOffset": 3511416,
      "componentType": 5126,
      "count": 6762,
      "max": [
        -1058.4315185546875,
        311.72979736328125,
        -205.35899353027344
      ],
      "min": [
        -1157.2032470703125,
        278.23141479492188,
        -221.04930114746094
      ],
      "type": "VEC3"
    },
    {
      "bufferView": 2,
      "byteOffset": 3592560,
      "componentType": 5126,
      "count": 6762,
      "max": [
        0.99829274415969849,
        0.99998319149017334,
        0.99990653991699219
      ],
      "min": [
        -0.99903690814971924,
        -0.99996960163116455,
        -0.99999904632568359
      ],
      "type": "VEC3"
    },
    {
      "bufferView": 1,
      "byteOffset": 1170472,
      "componentType": 5126,
      "count": 6762,
      "max": [
        0.98000001907348633,
        0.98570001125335693
      ],
      "min": [
        0.019999999552965164,
        0.014299999922513962
      ],
      "type": "VEC2"
    },
    {
      "bufferView": 0,
      "byteOffset": 3180396,
      "componentType": 5125,
      "count": 39168,
      "max": [
        6761
      ],
      "min": [
        0
      ],
      "type": "SCALAR"
    },
    {
      "bufferView": 2,
      "byteOffset": 3673704,
      "componentType": 5126,
      "count": 9241,
      "max": [
        -1058.0966796875,
        312.15341186523438,
        -205.35899353027344
      ],
      "min": [
        -1205.4385986328125,
        247.58219909667969,
        -248.79330444335938
      ],
      "type": "VEC3"
    },
    {
      "bufferView": 2,
      "byteOffset": 3784596,
      "componentType": 5126,
      "count": 9241,
      "max": [
        0.99947565793991089,
        0.99998319149017334,
        0.99990653991699219
      ],
      "min": [
        -0.99965614080429077,
        -0.99996960163116455,
        -0.99999904632568359
      ],
      "type": "VEC3"
    },
    {
      "bufferView": 1,
      "byteOffset": 1224568,
      "componentType": 5126,
      "count": 9241,
      "max": [
        1.0025999546051025,
        1.0017000436782837
      ],
      "min": [
        -0.027799999341368675,
        -0.0017000000225380063
      ],
      "type": "VEC2"
    },
    {
      "bufferView": 0,
      "byteOffset": 3337068,
      "componentType": 5125,
      "count": 46284,
      "max": [
        9240
      ],
      "min": [
        0
      ],
      "type": "SCALAR"
    },
    {
      "bufferView": 2,
      "byteOffset": 3895488,
      "componentType": 5126,
      "count": 8154,
      "max": [
        -1045.54931640625,
        312.15341186523438,
        -175.66099548339844
      ],
      "min": [
        -1313.364990234375,
        190.04280090332031,
        -248.79330444335938
      ],
      "type": "VEC3"
    },
    {
      "bufferView": 2,
      "byteOffset": 3993336,
      "componentType": 5126,
      "count": 8154,
      "max": [
        1,
        1,
        0.99946850538253784
      ],
      "min": [
        -1,
        -0.99999833106994629,
        -1
      ],
      "type": "VEC3"
    },
    {
      "bufferView": 1,
      "byteOffset": 1298496,
      "componentType": 5126,
      "count": 8154,
      "max": [
        1.0011999607086182,
        1.0008000135421753
      ],
      "min": [
        -0.027799999341368675,
        0
      ],
      "type": "VEC2"
    },
    {
      "bufferView": 0,
      "byteOffset": 3522204,
      "componentType": 5125,
      "count": 41232,
      "max": [
        8153
      ],
      "min": [
        0
      ],
      "type": "SCALAR"
    }
  ],
  "asset": {
    "extras": {
      "author": "TwilightSparkleX (https://sketchfab.com/TwilightSparkleX)",
      "license": "CC-BY-4.0 (http://creativecommons.org/licenses/by/4.0/)",
      "source": "https://sketchfab.com/3d-models/cardiff-grey-ca01fbd345d24a8dabc64754432fa878",
      "title": "Cardiff_grey"
    },
    "generator": "Sketchfab-10.13.0",
    "version": "2.0"
  },
  "bufferViews": [
    {
      "buffer": 0,
      "byteLength": 3687132,
      "byteOffset": 0,
      "name": "floatBufferViews",
      "target": 34963
    },
    {
      "buffer": 0,
      "byteLength": 1363728,
      "byteOffset": 3687132,
      "byteStride": 8,
      "name": "floatBufferViews",
      "target": 34962
    },
    {
      "buffer": 0,
      "byteLength": 4091184,
      "byteOffset": 5050860,
      "byteStride": 12,
      "name": "floatBufferViews",
      "target": 34962
    }
  ],
  "buffers": [
    {
      "byteLength": 9142044,
      "uri": "scene.bin"
    }
  ],
  "extensionsRequired": [
    "KHR_materials_pbrSpecularGlossiness"
  ],
  "extensionsUsed": [
    "KHR_materials_pbrSpecularGlossiness"
  ],
  "images": [
    {
      "uri": "textures/wire_006135058_diffuse.jpeg"
    },
    {
      "uri": "textures/wire_115115115_diffuse.png"
    },
    {
      "uri": "textures/wire_115115115_specularGlossiness.png"
    },
    {
      "uri": "textures/wire_153228184_diffuse.jpeg"
    },
    {
      "uri": "textures/wire_153228184_normal.png"
    }
  ],
  "materials": [
    {
      "doubleSided": true,
      "emissiveFactor": [
        0,
        0,
        0
      ],
      "extensions": {
        "KHR_materials_pbrSpecularGlossiness": {
          "diffuseFactor": [
            1,
            1,
            1,
            1
          ],
          "diffuseTexture": {
            "index": 0,
            "texCoord": 0
          },
          "glossinessFactor": 0.083244498050190463,
          "specularFactor": [
            0,
            0,
            0
          ]
        }
      },
      "name": "wire_006135058"
    },
    {
      "doubleSided": true,
      "emissiveFactor": [
        0,
        0,
        0
      ],
      "extensions": {
        "KHR_materials_pbrSpecularGlossiness": {
          "diffuseFactor": [
            1,
            1,
            1,
            1
          ],
          "diffuseTexture": {
            "index": 1,
            "texCoord": 0
          },
          "glossinessFactor": 1,
          "specularFactor": [
            0,
            0,
            0
          ],
          "specularGlossinessTexture": {
            "index": 2,
            "texCoord": 0
          }
        }
      },
      "name": "wire_115115115"
    },
    {
      "doubleSided": true,
      "emissiveFactor": [
        0,
        0,
        0
      ],
      "extensions": {
        "KHR_materials_pbrSpecularGlossiness": {
          "diffuseFactor": [
            1,
            1,
            1,
            1
          ],
          "diffuseTexture": {
            "index": 3,
            "texCoord": 0
          },
          "glossinessFactor": 0.083244498050190463,
          "specularFactor": [
            0,
            0,
            0
          ]
        }
      },
      "name": "wire_153228184",
      "normalTexture": {
        "index": 4,
        "scale": 1,
        "texCoord": 0
      }
    }
  ],
  "meshes": [
    {
      "primitives": [
        {
          "attributes": {
            "NORMAL": 1,
            "POSITION": 0,
            "TEXCOORD_0": 2
          },
          "indices": 3,
          "material": 2,
          "mode": 4
        }
      ]
    },
    {
      "primitives": [
        {
          "attributes": {
            "NORMAL": 5,
            "POSITION": 4,
            "TEXCOORD_0": 6
          },
          "indices": 7,
          "material": 2,
          "mode": 4
        }
      ]
    },
    {
      "primitives": [
        {
          "attributes": {
            "NORMAL": 9,
            "POSITION": 8,
            "TEXCOORD_0": 10
          },
          "indices": 11,
          "material": 0,
          "mode": 4
        }
      ]
    },
    {
      "primitives": [
        {
          "attributes": {
            "NORMAL": 13,
            "POSITION": 12,
            "TEXCOORD_0": 14
          },
          "indices": 15,
          "material": 1,
          "mode": 4
        }
      ]
    },
    {
      "primitives": [
        {
          "attributes": {
            "NORMAL": 17,
            "POSITION": 16,
            "TEXCOORD_0": 18
          },
          "indices": 19,
          "material": 1,
          "mode": 4
        }
      ]
    },
    {
      "primitives": [
        {
          "attributes": {
            "NORMAL": 21,
            "POSITION": 20,
            "TEXCOORD_0": 22
          },
          "indices": 23,
          "material": 1,
          "mode": 4
        }
      ]
    },
    {
      "primitives": [
        {
          "attributes": {
            "NORMAL": 25,
            "POSITION": 24,
            "TEXCOORD_0": 26
          },
          "indices": 27,
          "material": 1,
          "mode": 4
        }
      ]
    },
    {
      "primitives": [
        {
          "attributes": {
            "NORMAL": 29,
            "POSITION": 28,
            "TEXCOORD_0": 30
          },
          "indices": 31,
          "material": 1,
          "mode": 4
        }
      ]
    },
    {
      "primitives": [
        {
          "attributes": {
            "NORMAL": 33,
            "POSITION": 32,
            "TEXCOORD_0": 34
          },
          "indices": 35,
          "material": 1,
          "mode": 4
        }
      ]
    },
    {
      "primitives": [
        {
          "attributes": {
            "NORMAL": 37,
            "POSITION": 36,
            "TEXCOORD_0": 38
          },
          "indices": 39,
          "material": 1,
          "mode": 4
        }
      ]
    },
    {
      "primitives": [
        {
          "attributes": {
            "NORMAL": 41,
            "POSITION": 40,
            "TEXCOORD_0": 42
          },
          "indices": 43,
          "material": 1,
          "mode": 4
        }
      ]
    }
  ],
  "nodes": [
    {
      "children": [
        1
      ],
      "name": "RootNode (gltf orientation matrix)",
      "rotation": [
        -0.70710678118654746,
        -0,
        -0,
        0.70710678118654757
      ]
    },
    {
      "children": [
        2
      ],
      "name": "RootNode (model correction matrix)"
    },
    {
      "children": [
        3,
        4,
        5,
        6,
        7,
        8,
        9,
        10,
        11,
        12,
        13
      ],
      "name": "Cardiff_grey.obj.cleaner.materialmerger.gles"
    },
    {
      "mesh": 0,
      "name": ""
    },
    {
      "mesh": 1,
      "name": ""
    },
    {
      "mesh": 2,
      "name": ""
    },
    {
      "mesh": 3,
      "name": ""
    },
    {
      "mesh": 4,
      "name": ""
    },
    {
      "mesh": 5,
      "name": ""
    },
    {
      "mesh": 6,
      "name": ""
    },
    {
      "mesh": 7,
      "name": ""
    },
    {
      "mesh": 8,
      "name": ""
    },
    {
      "mesh": 9,
      "name": ""
    },
    {
      "mesh": 10,
      "name": ""
    }
  ],
  "samplers": [
    {
      "magFilter": 9729,
      "minFilter": 9987,
      "wrapS": 10497,
      "wrapT": 10497
    }
  ],
  "scene": 0,
  "scenes": [
    {
      "name": "OSG_Scene",
      "nodes": [
        0
      ]
    }
  ],
  "textures": [
    {
      "sampler": 0,
      "source": 0
    },
    {
      "sampler": 0,
      "source": 1
    },
    {
      "sampler": 0,
      "source": 2
    },
    {
      "sampler": 0,
      "source": 3
    },
    {
      "sampler": 0,
      "source": 4
    }
  ]
}

