{
    "accessors" : [
        {
            "bufferView" : 0,
            "componentType" : 5123,
            "count" : 1584,
            "max" : [
                447
            ],
            "min" : [
                0
            ],
            "type" : "SCALAR"
        },
        {
            "bufferView" : 1,
            "componentType" : 5126,
            "count" : 448,
            "max" : [
                108.53724670410156,
                76.71781921386719,
                0.2339935302734375
            ],
            "min" : [
                29.183727264404297,
                -97.93588256835938,
                -12.683609008789062
            ],
            "type" : "VEC3"
        },
        {
            "bufferView" : 2,
            "componentType" : 5126,
            "count" : 448,
            "max" : [
                0.9871211647987366,
                0.9870601296424866,
                0.9772942066192627
            ],
            "min" : [
                -0.9871211647987366,
                -0.9870906472206116,
                -0.9772942066192627
            ],
            "type" : "VEC3"
        },
        {
            "bufferView" : 3,
            "componentType" : 5126,
            "count" : 448,
            "max" : [
                1.0,
                1.0
            ],
            "min" : [
                0.0,
                0.0
            ],
            "type" : "VEC2"
        },
        {
            "bufferView" : 4,
            "componentType" : 5125,
            "count" : 432120,
            "max" : [
                180007
            ],
            "min" : [
                0
            ],
            "type" : "SCALAR"
        },
        {
            "bufferView" : 5,
            "componentType" : 5126,
            "count" : 180008,
            "max" : [
                -17.297718048095703,
                22.902816772460938,
                -12.5006103515625
            ],
            "min" : [
                -122.00767517089844,
                -41.67018127441406,
                -40.27580261230469
            ],
            "type" : "VEC3"
        },
        {
            "bufferView" : 6,
            "componentType" : 5126,
            "count" : 180008,
            "max" : [
                0.99993896484375,
                1.0,
                1.0
            ],
            "min" : [
                -0.99993896484375,
                -1.0,
                -1.0
            ],
            "type" : "VEC3"
        },
        {
            "bufferView" : 7,
            "componentType" : 5126,
            "count" : 180008,
            "max" : [
                1.0,
                1.0
            ],
            "min" : [
                0.0,
                0.0
            ],
            "type" : "VEC2"
        },
        {
            "bufferView" : 8,
            "componentType" : 5125,
            "count" : 487119,
            "max" : [
                103419
            ],
            "min" : [
                0
            ],
            "type" : "SCALAR"
        },
        {
            "bufferView" : 9,
            "componentType" : 5126,
            "count" : 103420,
            "max" : [
                134.09779357910156,
                84.03031921386719,
                -0.007415771484375
            ],
            "min" : [
                -133.71788024902344,
                -106.9102783203125,
                -79.95480346679688
            ],
            "type" : "VEC3"
        },
        {
            "bufferView" : 10,
            "componentType" : 5126,
            "count" : 103420,
            "max" : [
                1.0,
                1.0,
                1.0
            ],
            "min" : [
                -1.0,
                -1.0,
                -1.0
            ],
            "type" : "VEC3"
        },
        {
            "bufferView" : 11,
            "componentType" : 5126,
            "count" : 103420,
            "max" : [
                1.0025999546051025,
                1.001700000022538
            ],
            "min" : [
                -0.027799999341368675,
                -0.0017000436782836914
            ],
            "type" : "VEC2"
        }
    ],
    "asset" : {
        "generator" : "Khronos Blender glTF 2.0 exporter",
        "version" : "2.0"
    },
    "bufferViews" : [
        {
            "buffer" : 0,
            "byteLength" : 3168,
            "byteOffset" : 0,
            "target" : 34963
        },
        {
            "buffer" : 0,
            "byteLength" : 5376,
            "byteOffset" : 3168,
            "target" : 34962
        },
        {
            "buffer" : 0,
            "byteLength" : 5376,
            "byteOffset" : 8544,
            "target" : 34962
        },
        {
            "buffer" : 0,
            "byteLength" : 3584,
            "byteOffset" : 13920,
            "target" : 34962
        },
        {
            "buffer" : 0,
            "byteLength" : 1728480,
            "byteOffset" : 17504,
            "target" : 34963
        },
        {
            "buffer" : 0,
            "byteLength" : 2160096,
            "byteOffset" : 1745984,
            "target" : 34962
        },
        {
            "buffer" : 0,
            "byteLength" : 2160096,
            "byteOffset" : 3906080,
            "target" : 34962
        },
        {
            "buffer" : 0,
            "byteLength" : 1440064,
            "byteOffset" : 6066176,
            "target" : 34962
        },
        {
            "buffer" : 0,
            "byteLength" : 1948476,
            "byteOffset" : 7506240,
            "target" : 34963
        },
        {
            "buffer" : 0,
            "byteLength" : 1241040,
            "byteOffset" : 9454716,
            "target" : 34962
        },
        {
            "buffer" : 0,
            "byteLength" : 1241040,
            "byteOffset" : 10695756,
            "target" : 34962
        },
        {
            "buffer" : 0,
            "byteLength" : 827360,
            "byteOffset" : 11936796,
            "target" : 34962
        }
    ],
    "buffers" : [
        {
            "byteLength" : 12764156,
            "uri" : "scene.bin"
        }
    ],
    "images" : [
        {
            "name" : "Viteo_wood",
            "uri" : "Viteo_wood.jpg"
        },
        {
            "name" : "Viteo _BREEZE",
            "uri" : "Viteo _BREEZE.jpg"
        }
    ],
    "materials" : [
        {
            "name" : "wire_006135058",
            "pbrMetallicRoughness" : {
                "baseColorFactor" : [
                    0.023499999195337296,
                    0.5293999910354614,
                    0.22750000655651093,
                    1.0
                ],
                "baseColorTexture" : {
                    "index" : 0
                },
                "metallicFactor" : 0.0
            }
        },
        {
            "name" : "wire_115115115",
            "pbrMetallicRoughness" : {
                "baseColorFactor" : [
                    0.45100000500679016,
                    0.45100000500679016,
                    0.45100000500679016,
                    1.0
                ],
                "baseColorTexture" : {
                    "index" : 1
                },
                "metallicFactor" : 0.0
            }
        },
        {
            "alphaMode" : "BLEND",
            "name" : "wire_153228184",
            "pbrMetallicRoughness" : {
                "baseColorFactor" : [
                    0.059535376727581024,
                    0.052369363605976105,
                    0.06071941927075386,
                    1.0
                ],
                "metallicFactor" : 0.0
            }
        }
    ],
    "meshes" : [
        {
            "name" : "n",
            "primitives" : [
                {
                    "attributes" : {
                        "NORMAL" : 2,
                        "POSITION" : 1,
                        "TEXCOORD_0" : 3
                    },
                    "indices" : 0,
                    "material" : 0
                },
                {
                    "attributes" : {
                        "NORMAL" : 6,
                        "POSITION" : 5,
                        "TEXCOORD_0" : 7
                    },
                    "indices" : 4,
                    "material" : 2
                },
                {
                    "attributes" : {
                        "NORMAL" : 10,
                        "POSITION" : 9,
                        "TEXCOORD_0" : 11
                    },
                    "indices" : 8,
                    "material" : 1
                }
            ]
        }
    ],
    "nodes" : [
        {
            "name" : "Camera",
            "rotation" : [
                0.483536034822464,
                0.33687159419059753,
                -0.20870360732078552,
                0.7804827094078064
            ],
            "translation" : [
                7.481131553649902,
                5.34366512298584,
                6.5076398849487305
            ]
        },
        {
            "mesh" : 0,
            "name" : "n",
            "rotation" : [
                0.7071068286895752,
                0.0,
                -0.0,
                0.7071067094802856
            ],
            "scale" : [
                0.004800002556294203,
                0.004800002556294203,
                0.004800002556294203
            ],
            "translation" : [
                -3.725290298461914e-09,
                0.0,
                -0.0
            ]
        },
        {
            "name" : "Sun",
            "rotation" : [
                0.069246806204319,
                -0.0826275497674942,
                -0.42638203501701355,
                0.8980957269668579
            ],
            "scale" : [
                1.0,
                0.9999999403953552,
                1.0
            ]
        }
    ],
    "samplers" : [
        {}
    ],
    "scene" : 0,
    "scenes" : [
        {
            "name" : "Scene",
            "nodes" : [
                2,
                1,
                0
            ]
        }
    ],
    "textures" : [
        {
            "sampler" : 0,
            "source" : 0
        },
        {
            "sampler" : 0,
            "source" : 1
        }
    ]
}
