{
  "accessors": [
    {
      "bufferView": 2,
      "componentType": 5126,
      "count": 448,
      "max": [
        0.52097898721694946,
        0.47009199857711792,
        0.060881000012159348
      ],
      "min": [
        0.14008200168609619,
        -0.36824598908424377,
        -0.0011230000527575612
      ],
      "type": "VEC3"
    },
    {
      "bufferView": 2,
      "byteOffset": 5376,
      "componentType": 5126,
      "count": 448,
      "max": [
        0.98713237047195435,
        0.98705339431762695,
        0.97539275884628296
      ],
      "min": [
        -0.98713237047195435,
        -0.98706918954849243,
        -0.97539275884628296
      ],
      "type": "VEC3"
    },
    {
      "bufferView": 1,
      "componentType": 5126,
      "count": 448,
      "max": [
        1,
        1
      ],
      "min": [
        0,
        0
      ],
      "type": "VEC2"
    },
    {
      "bufferView": 0,
      "componentType": 5125,
      "count": 1584,
      "max": [
        447
      ],
      "min": [
        0
      ],
      "type": "SCALAR"
    },
    {
      "bufferView": 2,
      "byteOffset": 10752,
      "componentType": 5126,
      "count": 18477,
      "max": [
        0.6286500096321106,
        0.50860697031021118,
        0.35132399201393127
      ],
      "min": [
        -0.62682700157165527,
        -0.39878201484680176,
        0.062785997986793518
      ],
      "type": "VEC3"
    },
    {
      "bufferView": 2,
      "byteOffset": 232476,
      "componentType": 5126,
      "count": 18477,
      "max": [
        0.99999988079071045,
        0.99996113777160645,
        0.9999995231628418
      ],
      "min": [
        -0.99999904632568359,
        -0.99998831748962402,
        -0.99967724084854126
      ],
      "type": "VEC3"
    },
    {
      "bufferView": 1,
      "byteOffset": 3584,
      "componentType": 5126,
      "count": 18477,
      "max": [
        1.0025999546051025,
        1.0017000436782837
      ],
      "min": [
        -0.0024999999441206455,
        -0.0017000000225380063
      ],
      "type": "VEC2"
    },
    {
      "bufferView": 0,
      "byteOffset": 6336,
      "componentType": 5125,
      "count": 29784,
      "max": [
        18476
      ],
      "min": [
        0
      ],
      "type": "SCALAR"
    },
    {
      "bufferView": 2,
      "byteOffset": 454200,
      "componentType": 5126,
      "count": 65532,
      "max": [
        0.64367002248764038,
        0.48826199769973755,
        0.3837830126285553
      ],
      "min": [
        -0.64184600114822388,
        -0.11360300332307816,
        3.600000127335079e-05
      ],
      "type": "VEC3"
    },
    {
      "bufferView": 2,
      "byteOffset": 1240584,
      "componentType": 5126,
      "count": 65532,
      "max": [
        1,
        1,
        1
      ],
      "min": [
        -1,
        -1,
        -1
      ],
      "type": "VEC3"
    },
    {
      "bufferView": 1,
      "byteOffset": 151400,
      "componentType": 5126,
      "count": 65532,
      "max": [
        1.0013999938964844,
        1.0008000135421753
      ],
      "min": [
        -0.027799999341368675,
        -0.00079999997979030013
      ],
      "type": "VEC2"
    },
    {
      "bufferView": 0,
      "byteOffset": 125472,
      "componentType": 5125,
      "count": 360204,
      "max": [
        65531
      ],
      "min": [
        0
      ],
      "type": "SCALAR"
    },
    {
      "bufferView": 2,
      "byteOffset": 2026968,
      "componentType": 5126,
      "count": 20202,
      "max": [
        0.59435302019119263,
        0.51317000389099121,
        0.38275599479675293
      ],
      "min": [
        -0.58865600824356079,
        -0.40334600210189819,
        3.600000127335079e-05
      ],
      "type": "VEC3"
    },
    {
      "bufferView": 2,
      "byteOffset": 2269392,
      "componentType": 5126,
      "count": 20202,
      "max": [
        0.99999988079071045,
        0.9999992847442627,
        1
      ],
      "min": [
        -0.99999988079071045,
        -0.99999916553497314,
        -1
      ],
      "type": "VEC3"
    },
    {
      "bufferView": 1,
      "byteOffset": 675656,
      "componentType": 5126,
      "count": 20202,
      "max": [
        1.0013999938964844,
        1.0008000135421753
      ],
      "min": [
        -0.027799999341368675,
        -0.00079999997979030013
      ],
      "type": "VEC2"
    },
    {
      "bufferView": 0,
      "byteOffset": 1566288,
      "componentType": 5125,
      "count": 96972,
      "max": [
        20201
      ],
      "min": [
        0
      ],
      "type": "SCALAR"
    },
    {
      "bufferView": 2,
      "byteOffset": 2511816,
      "componentType": 5126,
      "count": 65532,
      "max": [
        -0.083029001951217651,
        0.19962300360202789,
        0.19332399964332581
      ],
      "min": [
        -0.39774000644683838,
        -0.10650800168514252,
        0.15116100013256073
      ],
      "type": "VEC3"
    },
    {
      "bufferView": 2,
      "byteOffset": 3298200,
      "componentType": 5126,
      "count": 65532,
      "max": [
        0.99948328733444214,
        0.99969619512557983,
        1
      ],
      "min": [
        -0.99950450658798218,
        -0.99973040819168091,
        -1
      ],
      "type": "VEC3"
    },
    {
      "bufferView": 1,
      "byteOffset": 837272,
      "componentType": 5126,
      "count": 65532,
      "max": [
        1,
        1
      ],
      "min": [
        0,
        0
      ],
      "type": "VEC2"
    },
    {
      "bufferView": 0,
      "byteOffset": 1954176,
      "componentType": 5125,
      "count": 157221,
      "max": [
        65531
      ],
      "min": [
        0
      ],
      "type": "SCALAR"
    },
    {
      "bufferView": 2,
      "byteOffset": 4084584,
      "componentType": 5126,
      "count": 65532,
      "max": [
        -0.083186998963356018,
        0.19968999922275543,
        0.1931689977645874
      ],
      "min": [
        -0.58563697338104248,
        -0.109934002161026,
        0.060003001242876053
      ],
      "type": "VEC3"
    },
    {
      "bufferView": 2,
      "byteOffset": 4870968,
      "componentType": 5126,
      "count": 65532,
      "max": [
        0.99999213218688965,
        1,
        0.99999892711639404
      ],
      "min": [
        -0.99999666213989258,
        -1,
        -0.99999868869781494
      ],
      "type": "VEC3"
    },
    {
      "bufferView": 1,
      "byteOffset": 1361528,
      "componentType": 5126,
      "count": 65532,
      "max": [
        1,
        1
      ],
      "min": [
        0,
        0
      ],
      "type": "VEC2"
    },
    {
      "bufferView": 0,
      "byteOffset": 2583060,
      "componentType": 5125,
      "count": 157200,
      "max": [
        65531
      ],
      "min": [
        0
      ],
      "type": "SCALAR"
    },
    {
      "bufferView": 2,
      "byteOffset": 5657352,
      "componentType": 5126,
      "count": 49012,
      "max": [
        -0.26453399658203125,
        0.20001700520515442,
        0.19332399964332581
      ],
      "min": [
        -0.58539098501205444,
        -0.10964900255203247,
        0.077655002474784851
      ],
      "type": "VEC3"
    },
    {
      "bufferView": 2,
      "byteOffset": 6245496,
      "componentType": 5126,
      "count": 49012,
      "max": [
        0.99953144788742065,
        0.9999997615814209,
        1
      ],
      "min": [
        -0.99951702356338501,
        -0.99999988079071045,
        -1
      ],
      "type": "VEC3"
    },
    {
      "bufferView": 1,
      "byteOffset": 1885784,
      "componentType": 5126,
      "count": 49012,
      "max": [
        1,
        1
      ],
      "min": [
        0,
        0
      ],
      "type": "VEC2"
    },
    {
      "bufferView": 0,
      "byteOffset": 3211860,
      "componentType": 5125,
      "count": 117666,
      "max": [
        49011
      ],
      "min": [
        0
      ],
      "type": "SCALAR"
    }
  ],
  "asset": {
    "extras": {
      "author": "TwilightSparkleX (https://sketchfab.com/TwilightSparkleX)",
      "license": "CC-BY-4.0 (http://creativecommons.org/licenses/by/4.0/)",
      "source": "https://sketchfab.com/3d-models/bag-1e2ebcbe43d94c2b8930e46deb591cb7",
      "title": "Bag"
    },
    "generator": "Sketchfab-10.15.0",
    "version": "2.0"
  },
  "bufferViews": [
    {
      "buffer": 0,
      "byteLength": 3682524,
      "byteOffset": 0,
      "name": "floatBufferViews",
      "target": 34963
    },
    {
      "buffer": 0,
      "byteLength": 2277880,
      "byteOffset": 3682524,
      "byteStride": 8,
      "name": "floatBufferViews",
      "target": 34962
    },
    {
      "buffer": 0,
      "byteLength": 6833640,
      "byteOffset": 5960404,
      "byteStride": 12,
      "name": "floatBufferViews",
      "target": 34962
    }
  ],
  "buffers": [
    {
      "byteLength": 12794044,
      "uri": "scene.bin"
    }
  ],
  "images": [
    {
      "uri": "textures/wire_115115115_baseColor.jpeg"
    },
    {
      "uri": "textures/wire_153228184_baseColor.jpeg"
    }
  ],
  "materials": [
    {
      "doubleSided": true,
      "name": "wire_006135058",
      "pbrMetallicRoughness": {
        "baseColorFactor": [
          0,
          0,
          0,
          1
        ],
        "metallicFactor": 0,
        "roughnessFactor": 0.59999999999999998
      }
    },
    {
      "doubleSided": true,
      "name": "wire_115115115",
      "pbrMetallicRoughness": {
        "baseColorFactor": [
          1,
          1,
          1,
          1
        ],
        "baseColorTexture": {
          "index": 0,
          "texCoord": 0
        },
        "metallicFactor": 0,
        "roughnessFactor": 0.59148684554536113
      }
    },
    {
      "doubleSided": true,
      "name": "wire_153228184",
      "pbrMetallicRoughness": {
        "baseColorFactor": [
          1,
          1,
          1,
          1
        ],
        "baseColorTexture": {
          "index": 1,
          "texCoord": 0
        },
        "metallicFactor": 0,
        "roughnessFactor": 0.59999999999999998
      }
    }
  ],
  "meshes": [
    {
      "primitives": [
        {
          "attributes": {
            "NORMAL": 1,
            "POSITION": 0,
            "TEXCOORD_0": 2
          },
          "indices": 3,
          "material": 0,
          "mode": 4
        }
      ]
    },
    {
      "primitives": [
        {
          "attributes": {
            "NORMAL": 5,
            "POSITION": 4,
            "TEXCOORD_0": 6
          },
          "indices": 7,
          "material": 1,
          "mode": 4
        }
      ]
    },
    {
      "primitives": [
        {
          "attributes": {
            "NORMAL": 9,
            "POSITION": 8,
            "TEXCOORD_0": 10
          },
          "indices": 11,
          "material": 1,
          "mode": 4
        }
      ]
    },
    {
      "primitives": [
        {
          "attributes": {
            "NORMAL": 13,
            "POSITION": 12,
            "TEXCOORD_0": 14
          },
          "indices": 15,
          "material": 1,
          "mode": 4
        }
      ]
    },
    {
      "primitives": [
        {
          "attributes": {
            "NORMAL": 17,
            "POSITION": 16,
            "TEXCOORD_0": 18
          },
          "indices": 19,
          "material": 2,
          "mode": 4
        }
      ]
    },
    {
      "primitives": [
        {
          "attributes": {
            "NORMAL": 21,
            "POSITION": 20,
            "TEXCOORD_0": 22
          },
          "indices": 23,
          "material": 2,
          "mode": 4
        }
      ]
    },
    {
      "primitives": [
        {
          "attributes": {
            "NORMAL": 25,
            "POSITION": 24,
            "TEXCOORD_0": 26
          },
          "indices": 27,
          "material": 2,
          "mode": 4
        }
      ]
    }
  ],
  "nodes": [
    {
      "children": [
        1
      ],
      "name": "RootNode (gltf orientation matrix)",
      "rotation": [
        -0.70710678118654746,
        -0,
        -0,
        0.70710678118654757
      ]
    },
    {
      "children": [
        2
      ],
      "name": "RootNode (model correction matrix)"
    },
    {
      "children": [
        3,
        4,
        5,
        6,
        7,
        8,
        9
      ],
      "name": "bag.obj.cleaner.materialmerger.gles"
    },
    {
      "mesh": 0,
      "name": ""
    },
    {
      "mesh": 1,
      "name": ""
    },
    {
      "mesh": 2,
      "name": ""
    },
    {
      "mesh": 3,
      "name": ""
    },
    {
      "mesh": 4,
      "name": ""
    },
    {
      "mesh": 5,
      "name": ""
    },
    {
      "mesh": 6,
      "name": ""
    }
  ],
  "samplers": [
    {
      "magFilter": 9729,
      "minFilter": 9987,
      "wrapS": 10497,
      "wrapT": 10497
    }
  ],
  "scene": 0,
  "scenes": [
    {
      "name": "OSG_Scene",
      "nodes": [
        0
      ]
    }
  ],
  "textures": [
    {
      "sampler": 0,
      "source": 0
    },
    {
      "sampler": 0,
      "source": 1
    }
  ]
}

