{
    "asset" : {
        "generator" : "Khronos glTF Blender I/O v1.4.40",
        "version" : "2.0"
    },
    "scene" : 0,
    "scenes" : [
        {
            "name" : "Scene",
            "nodes" : [
                0,
                1,
                2
            ]
        }
    ],
    "nodes" : [
        {
            "name" : "Light",
            "rotation" : [
                0.16907575726509094,
                0.7558803558349609,
                -0.27217137813568115,
                0.570947527885437
            ],
            "translation" : [
                4.076245307922363,
                5.903861999511719,
                -1.0054539442062378
            ]
        },
        {
            "name" : "Camera",
            "rotation" : [
                0.483536034822464,
                0.33687159419059753,
                -0.20870360732078552,
                0.7804827094078064
            ],
            "translation" : [
                7.358891487121582,
                4.958309173583984,
                6.925790786743164
            ]
        },
        {
            "mesh" : 0,
            "name" : "Plane017",
            "rotation" : [
                0.7071068286895752,
                0,
                0,
                0.7071067094802856
            ],
            "scale" : [
                0.013500001281499863,
                0.013500001281499863,
                0.013500001281499863
            ]
        }
    ],
    "materials" : [
        {
            "doubleSided" : true,
            "name" : "wire_115115115",
            "pbrMetallicRoughness" : {
                "baseColorFactor" : [
                    0.45100000500679016,
                    0.45100000500679016,
                    0.45100000500679016,
                    1
                ],
                "metallicFactor" : 0,
                "roughnessFactor" : 0.8114382028579712
            }
        },
        {
            "doubleSided" : true,
            "name" : "wire_006135058",
            "pbrMetallicRoughness" : {
                "baseColorFactor" : [
                    0.023499999195337296,
                    0.5293999910354614,
                    0.22750000655651093,
                    1
                ],
                "metallicFactor" : 0,
                "roughnessFactor" : 0.8114382028579712
            }
        },
        {
            "doubleSided" : true,
            "name" : "wire_153228184",
            "pbrMetallicRoughness" : {
                "baseColorFactor" : [
                    0.6000000238418579,
                    0.89410001039505,
                    0.7215999960899353,
                    1
                ],
                "metallicFactor" : 0,
                "roughnessFactor" : 0.8114382028579712
            }
        }
    ],
    "meshes" : [
        {
            "name" : "Plane017",
            "primitives" : [
                {
                    "attributes" : {
                        "POSITION" : 0,
                        "NORMAL" : 1,
                        "TEXCOORD_0" : 2
                    },
                    "indices" : 3,
                    "material" : 0
                },
                {
                    "attributes" : {
                        "POSITION" : 4,
                        "NORMAL" : 5,
                        "TEXCOORD_0" : 6
                    },
                    "indices" : 7,
                    "material" : 1
                },
                {
                    "attributes" : {
                        "POSITION" : 8,
                        "NORMAL" : 9,
                        "TEXCOORD_0" : 10
                    },
                    "indices" : 11,
                    "material" : 2
                }
            ]
        }
    ],
    "accessors" : [
        {
            "bufferView" : 0,
            "componentType" : 5126,
            "count" : 103867,
            "max" : [
                132.684326171875,
                75.1786117553711,
                -0.9616203308105469
            ],
            "min" : [
                -135.13134765625,
                -115.7619857788086,
                -80.90901184082031
            ],
            "type" : "VEC3"
        },
        {
            "bufferView" : 1,
            "componentType" : 5126,
            "count" : 103867,
            "type" : "VEC3"
        },
        {
            "bufferView" : 2,
            "componentType" : 5126,
            "count" : 103867,
            "type" : "VEC2"
        },
        {
            "bufferView" : 3,
            "componentType" : 5125,
            "count" : 487101,
            "type" : "SCALAR"
        },
        {
            "bufferView" : 4,
            "componentType" : 5126,
            "count" : 448,
            "max" : [
                107.123779296875,
                67.8661117553711,
                -0.7202110290527344
            ],
            "min" : [
                27.770263671875,
                -106.78759002685547,
                -13.637813568115234
            ],
            "type" : "VEC3"
        },
        {
            "bufferView" : 5,
            "componentType" : 5126,
            "count" : 448,
            "type" : "VEC3"
        },
        {
            "bufferView" : 6,
            "componentType" : 5126,
            "count" : 448,
            "type" : "VEC2"
        },
        {
            "bufferView" : 7,
            "componentType" : 5123,
            "count" : 1584,
            "type" : "SCALAR"
        },
        {
            "bufferView" : 8,
            "componentType" : 5126,
            "count" : 78018,
            "max" : [
                -18.711181640625,
                14.051111221313477,
                -13.454814910888672
            ],
            "min" : [
                -123.421142578125,
                -50.521888732910156,
                -41.23000717163086
            ],
            "type" : "VEC3"
        },
        {
            "bufferView" : 9,
            "componentType" : 5126,
            "count" : 78018,
            "type" : "VEC3"
        },
        {
            "bufferView" : 10,
            "componentType" : 5126,
            "count" : 78018,
            "type" : "VEC2"
        },
        {
            "bufferView" : 11,
            "componentType" : 5125,
            "count" : 432120,
            "type" : "SCALAR"
        }
    ],
    "bufferViews" : [
        {
            "buffer" : 0,
            "byteLength" : 1246404,
            "byteOffset" : 0
        },
        {
            "buffer" : 0,
            "byteLength" : 1246404,
            "byteOffset" : 1246404
        },
        {
            "buffer" : 0,
            "byteLength" : 830936,
            "byteOffset" : 2492808
        },
        {
            "buffer" : 0,
            "byteLength" : 1948404,
            "byteOffset" : 3323744
        },
        {
            "buffer" : 0,
            "byteLength" : 5376,
            "byteOffset" : 5272148
        },
        {
            "buffer" : 0,
            "byteLength" : 5376,
            "byteOffset" : 5277524
        },
        {
            "buffer" : 0,
            "byteLength" : 3584,
            "byteOffset" : 5282900
        },
        {
            "buffer" : 0,
            "byteLength" : 3168,
            "byteOffset" : 5286484
        },
        {
            "buffer" : 0,
            "byteLength" : 936216,
            "byteOffset" : 5289652
        },
        {
            "buffer" : 0,
            "byteLength" : 936216,
            "byteOffset" : 6225868
        },
        {
            "buffer" : 0,
            "byteLength" : 624144,
            "byteOffset" : 7162084
        },
        {
            "buffer" : 0,
            "byteLength" : 1728480,
            "byteOffset" : 7786228
        }
    ],
    "buffers" : [
        {
            "byteLength" : 9514708,
            "uri" : "scene.bin"
        }
    ]
}
